<?xml version="1.0" encoding="UTF-8" standalone="no"?>
<svg
   xmlns:dc="http://purl.org/dc/elements/1.1/"
   xmlns:cc="http://creativecommons.org/ns#"
   xmlns:rdf="http://www.w3.org/1999/02/22-rdf-syntax-ns#"
   xmlns:svg="http://www.w3.org/2000/svg"
   xmlns="http://www.w3.org/2000/svg"
   xmlns:xlink="http://www.w3.org/1999/xlink"
   xmlns:sodipodi="http://sodipodi.sourceforge.net/DTD/sodipodi-0.dtd"
   xmlns:inkscape="http://www.inkscape.org/namespaces/inkscape"
   inkscape:version="1.0 (6e3e5246a0, 2020-05-07)"
   sodipodi:docname="Centroid_of_a_ractangle001.svg"
   id="svg1039"
   version="1.0"
   width="350"
   height="350">
  <metadata
     id="metadata1043">
    <rdf:RDF>
      <cc:Work
         rdf:about="">
        <dc:format>image/svg+xml</dc:format>
        <dc:type
           rdf:resource="http://purl.org/dc/dcmitype/StillImage" />
        <dc:title></dc:title>
      </cc:Work>
    </rdf:RDF>
  </metadata>
  <sodipodi:namedview
     inkscape:current-layer="svg1039"
     inkscape:window-maximized="0"
     inkscape:window-y="38"
     inkscape:window-x="1462"
     inkscape:cy="91.743156"
     inkscape:cx="50.258181"
     inkscape:zoom="1.1771429"
     showgrid="true"
     id="namedview1041"
     inkscape:window-height="1015"
     inkscape:window-width="1663"
     inkscape:pageshadow="2"
     inkscape:pageopacity="0"
     guidetolerance="10"
     gridtolerance="10"
     objecttolerance="10"
     borderopacity="1"
     bordercolor="#666666"
     pagecolor="#ffffff">
    <inkscape:grid
       id="grid1093"
       type="xygrid" />
  </sodipodi:namedview>
  <defs
     id="defs985">
    <path
       d="m4.79-13.9c0.021-0.08 0.062-0.2 0.062-0.31 0-0.2-0.207-0.2-0.249-0.2-0.02 0-0.767 0.06-1.14 0.1-0.353 0.02-0.664 0.06-1.04 0.08-0.498 0.04-0.643 0.07-0.643 0.44 0 0.21 0.207 0.21 0.414 0.21 1.06 0 1.06 0.18 1.06 0.39 0 0.15-0.166 0.75-0.249 1.12l-0.497 1.99c-0.208 0.831-1.39 5.54-1.47 5.91-0.104 0.518-0.104 0.871-0.104 1.14 0 2.12 1.18 3.21 2.53 3.21 2.4 0.0004 4.89-3.09 4.89-6.1 0-1.91-1.08-3.26-2.63-3.26-1.08 0-2.05 0.891-2.45 1.31l1.51-6.04zm-1.31 13.7c-0.663 0-1.39-0.498-1.39-2.12 0-0.684 0.062-1.08 0.435-2.53 0.062-0.27 0.394-1.6 0.477-1.87 0.042-0.166 1.26-2.01 2.68-2.01 0.912 0 1.33 0.913 1.33 1.99 0 0.995-0.581 3.34-1.1 4.42-0.519 1.12-1.47 2.12-2.43 2.12z"
       id="i" />
    <marker
       overflow="visible"
       orient="auto"
       refX="0"
       refY="0"
       id="h">
      <path
         id="path958"
         stroke-width=".625"
         stroke="#000"
         transform="scale(.6)"
         fill-rule="evenodd"
         d="m8.72 4.03-10.9-4.01 10.9-4.02c-1.74 2.37-1.74 5.62-6e-7 8.04z"
         stroke-linejoin="round" />
    </marker>
    <marker
       overflow="visible"
       orient="auto"
       refX="0"
       refY="0"
       id="d">
      <path
         id="path961"
         stroke-width=".625"
         stroke="#000"
         transform="scale(-.6)"
         fill-rule="evenodd"
         d="m8.72 4.03-10.9-4.01 10.9-4.02c-1.74 2.37-1.74 5.62-6e-7 8.04z"
         stroke-linejoin="round" />
    </marker>
    <path
       d="m5.83-13.9c0.021-0.08 0.062-0.2 0.062-0.31 0-0.2-0.207-0.2-0.249-0.2-0.02 0-1.04 0.08-1.14 0.1-0.353 0.02-0.664 0.06-1.04 0.08-0.519 0.04-0.664 0.07-0.664 0.44 0 0.21 0.166 0.21 0.456 0.21 1.02 0 1.04 0.18 1.04 0.39 0 0.12-0.041 0.29-0.062 0.35l-3.02 12c-0.083 0.312-0.083 0.354-0.083 0.478 0 0.456 0.352 0.539 0.56 0.539 0.352 0 0.622-0.27 0.726-0.498l0.933-3.75c0.104-0.457 0.228-0.892 0.332-1.35 0.228-0.871 0.228-0.892 0.622-1.49 0.394-0.602 1.33-1.85 2.92-1.85 0.83 0 1.12 0.623 1.12 1.45 0 1.16-0.809 3.42-1.26 4.67-0.187 0.498-0.29 0.767-0.29 1.14 0 0.934 0.643 1.68 1.64 1.68 1.93 0.0004 2.66-3.05 2.66-3.17 0-0.104-0.09-0.186-0.21-0.186-0.19 0-0.21 0.062-0.31 0.414-0.48 1.66-1.25 2.53-2.08 2.53-0.207-0.0004-0.539-0.0211-0.539-0.685 0-0.539 0.249-1.2 0.332-1.43 0.373-0.995 1.31-3.44 1.31-4.65 0-1.24-0.726-2.18-2.3-2.18-1.18 0-2.22 0.56-3.07 1.64l1.6-6.37z"
       id="l" />
    <marker
       overflow="visible"
       orient="auto"
       refX="0"
       refY="0"
       id="f">
      <path
         id="path965"
         stroke-width=".625"
         stroke="#000"
         transform="scale(.6)"
         fill-rule="evenodd"
         d="m8.72 4.03-10.9-4.01 10.9-4.02c-1.74 2.37-1.74 5.62-6e-7 8.04z"
         stroke-linejoin="round" />
    </marker>
    <marker
       overflow="visible"
       orient="auto"
       refX="0"
       refY="0"
       id="b">
      <path
         id="path968"
         stroke-width=".625"
         stroke="#000"
         transform="scale(-.6)"
         fill-rule="evenodd"
         d="m8.72 4.03-10.9-4.01 10.9-4.02c-1.74 2.37-1.74 5.62-6e-7 8.04z"
         stroke-linejoin="round" />
    </marker>
    <marker
       overflow="visible"
       orient="auto"
       refX="0"
       refY="0"
       id="g">
      <path
         id="path971"
         stroke-width=".625"
         stroke="#000"
         transform="scale(.6)"
         fill-rule="evenodd"
         d="m8.72 4.03-10.9-4.01 10.9-4.02c-1.74 2.37-1.74 5.62-6e-7 8.04z"
         stroke-linejoin="round" />
    </marker>
    <marker
       overflow="visible"
       orient="auto"
       refX="0"
       refY="0"
       id="c">
      <path
         id="path974"
         stroke-width=".625"
         stroke="#000"
         transform="scale(-.6)"
         fill-rule="evenodd"
         d="m8.72 4.03-10.9-4.01 10.9-4.02c-1.74 2.37-1.74 5.62-6e-7 8.04z"
         stroke-linejoin="round" />
    </marker>
    <path
       d="m9.83-8.46c-0.664 0.125-0.913 0.622-0.913 1.02 0 0.498 0.394 0.664 0.685 0.664 0.617 0 1.06-0.539 1.06-1.1 0-0.871-0.995-1.26-1.87-1.26-1.26 0-1.97 1.24-2.16 1.64-0.477-1.56-1.76-1.64-2.14-1.64-2.12 0-3.24 2.72-3.24 3.17 0 0.083 0.083 0.187 0.228 0.187 0.166 0 0.208-0.125 0.249-0.208 0.705-2.3 2.1-2.74 2.7-2.74 0.934 0 1.12 0.872 1.12 1.37 0 0.457-0.124 0.934-0.373 1.93l-0.7 2.84c-0.311 1.24-0.913 2.38-2.01 2.38-0.104-0.0004-0.622-0.0004-1.06-0.27 0.747-0.145 0.913-0.767 0.913-1.02 0-0.415-0.311-0.664-0.705-0.664-0.498 0-1.04 0.436-1.04 1.1-0.0003 0.871 0.975 1.26 1.87 1.26 0.996 0.0004 1.7-0.788 2.14-1.64 0.331 1.22 1.37 1.64 2.14 1.64 2.12 0.0004 3.24-2.72 3.24-3.17 0-0.104-0.083-0.186-0.207-0.186-0.187 0-0.208 0.103-0.27 0.269-0.56 1.82-1.76 2.68-2.7 2.68-0.726-0.0004-1.12-0.54-1.12-1.39 0-0.456 0.083-0.788 0.415-2.16l0.726-2.82c0.311-1.24 1.02-2.16 1.97-2.16 0.041 0 0.622 0 1.06 0.27z"
       id="k" />
    <path
       d="m5.46 2.32c-0.56 0.79-1.37 1.5-2.39 1.5-0.25 0-1.25-0.04-1.56-1 0.062 0.02 0.166 0.02 0.207 0.02 0.623 0 1.04-0.539 1.04-1.02 0-0.477-0.394-0.643-0.705-0.643-0.332 0-1.06 0.249-1.06 1.26 0.0005 1.06 0.892 1.78 2.08 1.78 2.07 0 4.17-1.91 4.75-4.21l2.03-8.09c0.02-0.104 0.062-0.228 0.062-0.352 0-0.312-0.249-0.519-0.56-0.519-0.187 0-0.622 0.083-0.788 0.705l-1.54 6.1c-0.104 0.373-0.104 0.415-0.27 0.643-0.415 0.58-1.1 1.29-2.1 1.29-1.16-0.0004-1.26-1.14-1.26-1.7 0-1.18 0.56-2.78 1.12-4.27 0.228-0.601 0.353-0.891 0.353-1.31 0-0.871-0.622-1.66-1.64-1.66-1.91 0-2.68 3.01-2.68 3.17 0 0.083 0.0829 0.187 0.228 0.187 0.187 0 0.207-0.083 0.29-0.374 0.498-1.74 1.29-2.57 2.1-2.57 0.187 0 0.539 0 0.539 0.685 0 0.539-0.228 1.14-0.539 1.93-1.02 2.72-1.02 3.4-1.02 3.9 0 1.97 1.41 2.43 2.45 2.43 0.602 0.0004 1.35-0.186 2.07-0.954l0.021 0.0207c-0.311 1.22-0.518 2.03-1.24 3.05z"
       id="j" />
    <marker
       overflow="visible"
       orient="auto"
       refX="0"
       refY="0"
       id="e">
      <path
         id="path979"
         stroke-width=".625"
         stroke="#000"
         transform="scale(.6)"
         fill-rule="evenodd"
         d="m8.72 4.03-10.9-4.01 10.9-4.02c-1.74 2.37-1.74 5.62-6e-7 8.04z"
         stroke-linejoin="round" />
    </marker>
    <marker
       overflow="visible"
       orient="auto"
       refX="0"
       refY="0"
       id="a">
      <path
         id="path982"
         stroke-width=".625"
         stroke="#000"
         transform="scale(-.6)"
         fill-rule="evenodd"
         d="m8.72 4.03-10.9-4.01 10.9-4.02c-1.74 2.37-1.74 5.62-6e-7 8.04z"
         stroke-linejoin="round" />
    </marker>
  </defs>
  <g
     id="g997"
     fill="none"
     stroke-width="2"
     stroke="#000"
     transform="translate(-4 5.3)">
    <path
       id="path987"
       d="M 76.451458,300 V 270" />
    <path
       id="path989"
       d="m248 300v-30" />
    <path
       id="path991"
       marker-start="url(#f)"
       d="M 80.849514,296 242.84952,295.7"
       marker-end="url(#b)" />
    <path
       id="path993"
       d="m280 270h-30" />
    <path
       id="path995"
       d="M 280,26.425729 H 250" />
  </g>
  <path
     sodipodi:nodetypes="ccccc"
     style="fill:#ececec"
     id="path999"
     fill="#ccc"
     stroke-width="4"
     stroke="#808080"
     fill-rule="evenodd"
     d="M 72.251456,275 H 243.8 l 0.21238,-242.637136 -172.074273,-0.0042 z" />
  <path
     id="path1001"
     fill="none"
     stroke-width="2"
     stroke="#000000"
     d="m 157.97483,114.39731 v 30" />
  <g
     id="g1005"
     transform="matrix(1.41 0 0 1.41 81.4 233)"
     fill-rule="evenodd">
    <use
       id="use1003"
       x="56.624802"
       y="68.402802"
       width="100%"
       height="100%"
       transform="translate(-2.84)"
       xlink:href="#i" />
  </g>
  <path
     id="path1007"
     fill="none"
     stroke-width="2"
     stroke="#000"
     marker-start="url(#h)"
     d="m272 272-1-236"
     marker-end="url(#d)" />
  <g
     id="g1011"
     transform="matrix(1.41 0 0 1.41 239 98.2)">
    <use
       id="use1009"
       x="56.624802"
       y="68.402802"
       width="100%"
       height="100%"
       transform="translate(-28.5 -21.2)"
       xlink:href="#l" />
  </g>
  <path
     id="path1013"
     fill="none"
     stroke-width="2"
     stroke="#000000"
     d="m 120,155 h 30" />
  <g
     id="g1021"
     transform="matrix(1.19,0,0,1.19,100.25983,32.299308)">
    <circle
       id="circle1015"
       fill="#ffffff"
       r="8"
       cx="48.5"
       cy="102"
       stroke="#000000"
       stroke-width="0.842" />
    <path
       id="path1017"
       d="m 48.5,94.2 a 8,8 0 0 1 8,8 h -8 z" />
    <path
       id="path1019"
       d="M 48.5,110 A 8,8 0 0 1 42.84,107.7 8,8 0 0 1 40.5,102 h 8 z" />
  </g>
  <path
     style="fill:#000000;stroke:#000000;stroke-opacity:1"
     id="path1023"
     fill="none"
     stroke-width="2.44625"
     stroke="#000"
     marker-start="url(#e)"
     d="M 240.4,129.681 165,130"
     marker-end="url(#a)" />
  <path
     id="path1025"
     fill="none"
     stroke-width="2.4189"
     stroke="#000000"
     marker-start="url(#g)"
     d="m 135,160 0.319,110"
     marker-end="url(#c)" />
  <g
     id="g1031"
     transform="matrix(1.41,0,0,1.41,115.194,6.5616985)">
    <rect
       id="rect1027"
       height="0.82999998"
       width="11.5"
       x="56.599998"
       y="54.799999" />
    <use
       id="use1029"
       x="56.624802"
       y="67.077599"
       width="100%"
       height="100%"
       xlink:href="#k" />
  </g>
  <g
     id="g1037"
     transform="matrix(1.41,0,0,1.41,10.248004,126.5617)">
    <rect
       id="rect1033"
       height="0.82999998"
       width="10.6"
       x="56.599998"
       y="54.799999" />
    <use
       id="use1035"
       x="56.624802"
       y="67.077599"
       width="100%"
       height="100%"
       xlink:href="#j" />
  </g>
</svg>
