<svg version="1.1" viewBox="0.0 0.0 387.61942257217845 406.2992125984252" fill="none" stroke="none" stroke-linecap="square" stroke-miterlimit="10" xmlns:xlink="http://www.w3.org/1999/xlink" xmlns="http://www.w3.org/2000/svg"><clipPath id="p.0"><path d="m0 0l387.61942 0l0 406.29922l-387.61942 0l0 -406.29922z" clip-rule="nonzero"/></clipPath><g clip-path="url(#p.0)"><path fill="#000000" fill-opacity="0.0" d="m0 0l387.61942 0l0 406.29922l-387.61942 0z" fill-rule="evenodd"/><path fill="#000000" fill-opacity="0.0" d="m48.58005 46.23622l27.842518 0l0 156.91339l-27.842518 0z" fill-rule="evenodd"/><path stroke="#000000" stroke-width="3.0" stroke-linejoin="round" stroke-linecap="butt" d="m48.58005 46.23622l27.842518 0l0 156.91339l-27.842518 0z" fill-rule="evenodd"/><path fill="#ff0000" d="m56.18635 151.7559l0 0c0 -24.883255 2.8273048 -45.055115 6.3149605 -45.055115l0 0c1.6748352 0 3.281067 4.7468643 4.465355 13.196335c1.1842804 8.449478 1.8496094 19.909424 1.8496094 31.85878l0 0c0 24.883255 -2.8273087 45.055115 -6.3149643 45.055115l0 0c-1.6748314 0 -3.281067 -4.7468567 -4.465351 -13.196335c-1.1842842 -8.449478 -1.8496094 -19.909424 -1.8496094 -31.85878z" fill-rule="evenodd"/><path fill="#000000" fill-opacity="0.0" d="m314.30972 46.23622l27.842499 0l0 156.91339l-27.842499 0z" fill-rule="evenodd"/><path stroke="#000000" stroke-width="3.0" stroke-linejoin="round" stroke-linecap="butt" d="m314.30972 46.23622l27.842499 0l0 156.91339l-27.842499 0z" fill-rule="evenodd"/><path fill="#ff0000" d="m321.91602 134.35957l0 0c0 -34.493874 2.827301 -62.456688 6.3149414 -62.456688l0 0c1.6748352 0 3.281067 6.5802383 4.4653625 18.293144c1.1842957 11.712898 1.8496094 27.599007 1.8496094 44.163544l0 0c0 34.49388 -2.827301 62.456696 -6.314972 62.456696l0 0c-1.6748047 0 -3.281067 -6.5802307 -4.465332 -18.293137c-1.1842957 -11.712906 -1.8496094 -27.599014 -1.8496094 -44.16356z" fill-rule="evenodd"/><path fill="#000000" fill-opacity="0.0" d="m76.419945 124.69292l237.88977 0" fill-rule="evenodd"/><path stroke="#000000" stroke-width="3.0" stroke-linejoin="round" stroke-linecap="butt" d="m94.419945 124.69292l201.88977 0" fill-rule="evenodd"/><path fill="#000000" stroke="#000000" stroke-width="3.0" stroke-linecap="butt" d="m94.419945 119.73772l-13.614288 4.9552l13.614288 4.9552z" fill-rule="evenodd"/><path fill="#000000" stroke="#000000" stroke-width="3.0" stroke-linecap="butt" d="m296.30972 129.64812l13.614288 -4.9552l-13.614288 -4.9552z" fill-rule="evenodd"/><path fill="#000000" fill-opacity="0.0" d="m56.18635 124.69292l0 0c0 -39.834084 2.8273048 -72.12599 6.3149605 -72.12599l0 0c1.6748352 0 3.281067 7.5989647 4.465355 21.12521c1.1842804 13.526245 1.8496094 31.871773 1.8496094 51.00078l0 0c0 39.834076 -2.8273087 72.12598 -6.3149643 72.12598l0 0c-1.6748314 0 -3.281067 -7.5989685 -4.465351 -21.125214c-1.1842842 -13.526245 -1.8496094 -31.871765 -1.8496094 -51.000763z" fill-rule="evenodd"/><path stroke="#000000" stroke-width="2.0" stroke-linejoin="round" stroke-linecap="butt" d="m56.18635 124.69292l0 0c0 -39.834084 2.8273048 -72.12599 6.3149605 -72.12599l0 0c1.6748352 0 3.281067 7.5989647 4.465355 21.12521c1.1842804 13.526245 1.8496094 31.871773 1.8496094 51.00078l0 0c0 39.834076 -2.8273087 72.12598 -6.3149643 72.12598l0 0c-1.6748314 0 -3.281067 -7.5989685 -4.465351 -21.125214c-1.1842842 -13.526245 -1.8496094 -31.871765 -1.8496094 -51.000763z" fill-rule="evenodd"/><path fill="#000000" fill-opacity="0.0" d="m321.91602 124.69292l0 0c0 -39.834084 2.827301 -72.12599 6.3149414 -72.12599l0 0c1.6748352 0 3.281067 7.5989647 4.4653625 21.12521c1.1842957 13.526245 1.8496094 31.871773 1.8496094 51.00078l0 0c0 39.834076 -2.827301 72.12598 -6.314972 72.12598l0 0c-1.6748047 0 -3.281067 -7.5989685 -4.465332 -21.125214c-1.1842957 -13.526245 -1.8496094 -31.871765 -1.8496094 -51.000763z" fill-rule="evenodd"/><path stroke="#000000" stroke-width="2.0" stroke-linejoin="round" stroke-linecap="butt" d="m321.91602 124.69292l0 0c0 -39.834084 2.827301 -72.12599 6.3149414 -72.12599l0 0c1.6748352 0 3.281067 7.5989647 4.4653625 21.12521c1.1842957 13.526245 1.8496094 31.871773 1.8496094 51.00078l0 0c0 39.834076 -2.827301 72.12598 -6.314972 72.12598l0 0c-1.6748047 0 -3.281067 -7.5989685 -4.465332 -21.125214c-1.1842957 -13.526245 -1.8496094 -31.871765 -1.8496094 -51.000763z" fill-rule="evenodd"/><path fill="#000000" fill-opacity="0.0" d="m48.58005 244.47244l27.842518 0l0 156.91339l-27.842518 0z" fill-rule="evenodd"/><path stroke="#000000" stroke-width="3.0" stroke-linejoin="round" stroke-linecap="butt" d="m48.58005 244.47244l27.842518 0l0 156.91339l-27.842518 0z" fill-rule="evenodd"/><path fill="#ff0000" d="m56.18635 332.59055l0 0c0 -34.493866 2.8273048 -62.456696 6.3149605 -62.456696l0 0c1.6748352 0 3.281067 6.580261 4.465355 18.293152c1.1842804 11.712891 1.8496094 27.598999 1.8496094 44.163544l0 0c0 34.493896 -2.8273087 62.456696 -6.3149643 62.456696l0 0c-1.6748314 0 -3.281067 -6.5802307 -4.465351 -18.293152c-1.1842842 -11.712891 -1.8496094 -27.598999 -1.8496094 -44.163544z" fill-rule="evenodd"/><path fill="#000000" fill-opacity="0.0" d="m314.30972 244.47244l27.842499 0l0 156.91339l-27.842499 0z" fill-rule="evenodd"/><path stroke="#000000" stroke-width="3.0" stroke-linejoin="round" stroke-linecap="butt" d="m314.30972 244.47244l27.842499 0l0 156.91339l-27.842499 0z" fill-rule="evenodd"/><path fill="#ff0000" d="m321.91602 349.99738l0 0c0 -24.88324 2.827301 -45.055115 6.3149414 -45.055115l0 0c1.6748352 0 3.281067 4.7468567 4.4653625 13.19635c1.1842957 8.449463 1.8496094 19.909393 1.8496094 31.858765l0 0c0 24.88324 -2.827301 45.055115 -6.314972 45.055115l0 0c-1.6748047 0 -3.281067 -4.7468567 -4.465332 -13.19635c-1.1842957 -8.449463 -1.8496094 -19.909393 -1.8496094 -31.858765z" fill-rule="evenodd"/><path fill="#000000" fill-opacity="0.0" d="m76.419945 322.92914l237.88977 0" fill-rule="evenodd"/><path stroke="#000000" stroke-width="3.0" stroke-linejoin="round" stroke-linecap="butt" d="m94.419945 322.92914l201.88977 0" fill-rule="evenodd"/><path fill="#000000" stroke="#000000" stroke-width="3.0" stroke-linecap="butt" d="m94.419945 317.97394l-13.614288 4.9552l13.614288 4.9552z" fill-rule="evenodd"/><path fill="#000000" stroke="#000000" stroke-width="3.0" stroke-linecap="butt" d="m296.30972 327.88434l13.614288 -4.9552l-13.614288 -4.9552z" fill-rule="evenodd"/><path fill="#ea4b4b" fill-opacity="0.419" d="m115.14567 4.913386l160.44095 0l0 41.322834l-160.44095 0z" fill-rule="evenodd"/><path fill="#000000" d="m141.61378 18.364634l4.5 0l0 0.671875l-0.3125 0q-0.703125 0 -0.90625 0.109375q-0.203125 0.109375 -0.203125 0.359375q0 0.15625 0.140625 0.515625l0.0625 0.171875l2.734375 8.546875l2.40625 -7.890625q-0.421875 -1.34375 -0.640625 -1.578125q-0.21875 -0.234375 -0.890625 -0.234375l-0.8125 0l0 -0.671875l5.609375 0l0 0.671875l-0.578125 0q-0.765625 0 -1.0 0.125q-0.21875 0.125 -0.21875 0.375q0 0.1875 0.046875 0.359375l2.796875 8.84375l2.296875 -7.65625q0.140625 -0.453125 0.140625 -0.859375q0 -0.609375 -0.28125 -0.890625q-0.265625 -0.296875 -0.828125 -0.296875l-0.421875 0l0 -0.671875l4.234375 0l0 0.671875q-0.5625 0.078125 -0.890625 0.28125q-0.328125 0.1875 -0.578125 0.5625q-0.234375 0.359375 -0.46875 1.203125l-3.328125 11.062502l-0.640625 0l-3.109375 -9.875002l-2.953125 9.875002l-0.6875 0l-3.78125 -11.953127q-0.234375 -0.703125 -0.515625 -0.921875q-0.28125 -0.234375 -0.921875 -0.234375l0 -0.671875zm20.80098 -0.15625q0.40625 0 0.703125 0.3125q0.3125 0.296875 0.3125 0.71875q0 0.421875 -0.296875 0.71875q-0.296875 0.296875 -0.71875 0.296875q-0.421875 0 -0.734375 -0.296875q-0.296875 -0.3125 -0.296875 -0.71875q0 -0.421875 0.3125 -0.71875q0.3125 -0.3125 0.71875 -0.3125zm-2.359375 5.09375l3.375 -0.109375l0 7.34375q0 0.296875 0.15625 0.4375q0.203125 0.171875 0.53125 0.171875l0.953125 0l0 0.6875l-4.84375 0l0 -0.6875l0.90625 0q0.40625 0 0.59375 -0.1875q0.1875 -0.203125 0.1875 -0.578125l0 -5.375q0 -0.5 -0.296875 -0.765625q-0.296875 -0.265625 -0.875 -0.265625l-0.6875 0l0 -0.671875zm8.266251 -3.484375l0.625 0l0 3.484375l2.765625 0l0 0.828125l-2.765625 0l0 5.484375q0 0.703125 0.328125 1.09375q0.34375 0.375 0.875 0.375q0.609375 0 1.046875 -0.578125q0.4375 -0.578125 0.515625 -1.890625l0.609375 0q-0.0625 1.703125 -0.78125 2.53125q-0.71875 0.8125 -1.859375 0.8125q-1.0625 0 -1.65625 -0.578125q-0.59375 -0.578125 -0.59375 -1.515625l0 -5.734375l-1.484375 0l0 -0.625q1.0 -0.1875 1.53125 -0.859375q0.78125 -1.0 0.84375 -2.828125zm4.807144 -1.453125l3.234375 -0.15625l0 6.578125q0.671875 -0.875 1.4375 -1.3125q0.78125 -0.4375 1.65625 -0.4375q0.8125 0 1.46875 0.390625q0.515625 0.3125 0.875 1.09375q0.359375 0.765625 0.359375 1.828125l0 4.046875q0 0.40625 0.1875 0.578125q0.203125 0.171875 0.640625 0.171875l0.734375 0l0 0.6875l-4.609375 0l0 -0.6875l0.5 0q0.578125 0 0.796875 -0.1875q0.234375 -0.1875 0.234375 -0.5625l0 -4.046875q0 -1.0625 -0.515625 -1.65625q-0.515625 -0.609375 -1.3125 -0.609375q-0.625 0 -1.171875 0.34375q-0.53125 0.34375 -0.90625 1.03125q-0.375 0.6875 -0.375 1.453125l0 3.40625q0 0.453125 0.1875 0.640625q0.203125 0.1875 0.640625 0.1875l0.71875 0l0 0.6875l-4.5 0l0 -0.6875l0.5 0q0.515625 0 0.734375 -0.203125q0.21875 -0.203125 0.21875 -0.625l0 -10.1875q0 -0.546875 -0.28125 -0.8125q-0.28125 -0.28125 -0.828125 -0.28125l-0.625 0l0 -0.671875zm15.645981 4.671875q1.71875 0 2.890625 1.25q1.171875 1.25 1.171875 3.28125q0 1.390625 -0.53125 2.390625q-0.515625 0.984375 -1.484375 1.5625q-0.96875 0.5625019 -2.09375 0.5625019q-1.65625 0 -2.8125 -1.2500019q-1.15625 -1.265625 -1.15625 -3.265625q0 -2.015625 1.15625 -3.265625q1.15625 -1.265625 2.859375 -1.265625zm0 0.65625q-1.03125 0 -1.6875 0.921875q-0.640625 0.921875 -0.640625 2.921875q0 2.03125 0.640625 2.96875q0.65625 0.9375 1.6875 0.9375q1.0625 0 1.71875 -0.9375q0.65625 -0.9375 0.65625 -3.078125q0 -1.96875 -0.65625 -2.84375q-0.640625 -0.890625 -1.71875 -0.890625zm8.21875 -0.546875l0 5.65625q0 1.03125 0.515625 1.609375q0.53125 0.5625 1.359375 0.5625q1.03125 0 1.734375 -0.828125q0.71875 -0.828125 0.71875 -2.0625l0 -3.203125q0 -0.4375 -0.3125 -0.671875q-0.3125 -0.25 -1.203125 -0.265625l0 -0.640625l3.0 -0.15625l0 7.0q0 0.484375 0.265625 0.75q0.28125 0.25 0.765625 0.25l0.53125 0l0 0.609375l-2.859375 0.078125l-0.1875 -1.6875q-0.765625 0.90625 -1.546875 1.359375q-0.765625 0.453125 -1.5625 0.453125q-1.15625 0 -1.9375 -0.765625q-0.796875 -0.765625 -0.796875 -2.609375l0 -3.703125q0 -0.484375 -0.390625 -0.75q-0.265625 -0.171875 -1.109375 -0.1875l0 -0.640625l3.015625 -0.15625zm10.708481 -3.328125l0.625 0l0 3.484375l2.765625 0l0 0.828125l-2.765625 0l0 5.484375q0 0.703125 0.328125 1.09375q0.34375 0.375 0.875 0.375q0.609375 0 1.046875 -0.578125q0.4375 -0.578125 0.515625 -1.890625l0.609375 0q-0.0625 1.703125 -0.78125 2.53125q-0.71875 0.8125 -1.859375 0.8125q-1.0625 0 -1.65625 -0.578125q-0.59375 -0.578125 -0.59375 -1.515625l0 -5.734375l-1.484375 0l0 -0.625q1.0 -0.1875 1.53125 -0.859375q0.78125 -1.0 0.84375 -2.828125zm16.115448 -1.734375l0.609375 0l4.828125 12.3125q0.296875 0.75 1.203125 0.75l0.421875 0l0 0.6875l-5.375 0l0 -0.6875l0.421875 0q0.84375 0 1.1875 -0.171875q0.234375 -0.140625 0.234375 -0.390625q0 -0.15625 -0.0625 -0.328125l-1.125 -2.875l-5.3125 0l-0.625 1.640625q-0.25 0.65625 -0.25 1.046875q0 0.4375 0.40625 0.765625q0.421875 0.3125 1.21875 0.3125l0.453125 0l0 0.6875l-4.890625 0l0 -0.6875q0.78125 0 1.234375 -0.328125q0.46875 -0.34375 0.84375 -1.3125l4.578125 -11.421875zm-0.265625 2.59375l-2.421875 6.0l4.765625 0l-2.34375 -6.0zm12.410446 -2.3125l-4.015625 13.46875l-1.171875 0l4.015625 -13.46875l1.171875 0zm10.792679 1.046875l0.625 -1.3125l0.578125 0l0.234375 5.421875l-0.609375 0q-0.609375 -2.28125 -1.515625 -3.359375q-1.125 -1.359375 -2.6875 -1.359375q-1.703125 0 -2.765625 1.515625q-1.0625 1.5 -1.0625 5.109375q0 3.03125 1.21875 4.625q1.03125 1.359375 2.90625 1.359375q1.640625 0 2.75 -1.046875q1.125 -1.0625 1.453125 -3.1875l0.65625 0q-0.296875 2.40625 -1.65625 3.703125q-1.359375 1.2968769 -3.4375 1.2968769q-1.6875 0 -3.09375 -0.8437519q-1.40625 -0.859375 -2.25 -2.4375q-0.84375 -1.59375 -0.84375 -3.5q0 -2.0 0.859375 -3.765625q0.875 -1.78125 2.234375 -2.65625q1.359375 -0.890625 2.921875 -0.890625q0.875 0 1.6875 0.296875q0.828125 0.296875 1.796875 1.03125z" fill-rule="nonzero"/><path fill="#ea4b4b" fill-opacity="0.419" d="m115.14567 203.14961l160.44095 0l0 41.32283l-160.44095 0z" fill-rule="evenodd"/><path fill="#000000" d="m155.60597 216.60086l4.5 0l0 0.671875l-0.3125 0q-0.703125 0 -0.90625 0.109375q-0.203125 0.109375 -0.203125 0.359375q0 0.15625 0.140625 0.515625l0.0625 0.171875l2.734375 8.546875l2.40625 -7.890625q-0.421875 -1.34375 -0.640625 -1.578125q-0.21875 -0.234375 -0.890625 -0.234375l-0.8125 0l0 -0.671875l5.609375 0l0 0.671875l-0.578125 0q-0.765625 0 -1.0 0.125q-0.21875 0.125 -0.21875 0.375q0 0.1875 0.046875 0.359375l2.796875 8.84375l2.296875 -7.65625q0.140625 -0.453125 0.140625 -0.859375q0 -0.609375 -0.28125 -0.890625q-0.265625 -0.296875 -0.828125 -0.296875l-0.421875 0l0 -0.671875l4.234375 0l0 0.671875q-0.5625 0.078125 -0.890625 0.28125q-0.328125 0.1875 -0.578125 0.5625q-0.234375 0.359375 -0.46875 1.203125l-3.328125 11.0625l-0.640625 0l-3.109375 -9.875l-2.953125 9.875l-0.6875 0l-3.78125 -11.953125q-0.234375 -0.703125 -0.515625 -0.921875q-0.28125 -0.234375 -0.921875 -0.234375l0 -0.671875zm20.80098 -0.15625q0.40625 0 0.703125 0.3125q0.3125 0.296875 0.3125 0.71875q0 0.421875 -0.296875 0.71875q-0.296875 0.296875 -0.71875 0.296875q-0.421875 0 -0.734375 -0.296875q-0.296875 -0.3125 -0.296875 -0.71875q0 -0.421875 0.3125 -0.71875q0.3125 -0.3125 0.71875 -0.3125zm-2.359375 5.09375l3.375 -0.109375l0 7.34375q0 0.296875 0.15625 0.4375q0.203125 0.171875 0.53125 0.171875l0.953125 0l0 0.6875l-4.84375 0l0 -0.6875l0.90625 0q0.40625 0 0.59375 -0.1875q0.1875 -0.203125 0.1875 -0.578125l0 -5.375q0 -0.5 -0.296875 -0.765625q-0.296875 -0.265625 -0.875 -0.265625l-0.6875 0l0 -0.671875zm8.266251 -3.484375l0.625 0l0 3.484375l2.765625 0l0 0.828125l-2.765625 0l0 5.484375q0 0.703125 0.328125 1.09375q0.34375 0.375 0.875 0.375q0.609375 0 1.046875 -0.578125q0.4375 -0.578125 0.515625 -1.890625l0.609375 0q-0.0625 1.703125 -0.78125 2.53125q-0.71875 0.8125 -1.859375 0.8125q-1.0625 0 -1.65625 -0.578125q-0.59375 -0.578125 -0.59375 -1.515625l0 -5.734375l-1.484375 0l0 -0.625q1.0 -0.1875 1.53125 -0.859375q0.78125 -1.0 0.84375 -2.828125zm4.807144 -1.453125l3.234375 -0.15625l0 6.578125q0.671875 -0.875 1.4375 -1.3125q0.78125 -0.4375 1.65625 -0.4375q0.8125 0 1.46875 0.390625q0.515625 0.3125 0.875 1.09375q0.359375 0.765625 0.359375 1.828125l0 4.046875q0 0.40625 0.1875 0.578125q0.203125 0.171875 0.640625 0.171875l0.734375 0l0 0.6875l-4.609375 0l0 -0.6875l0.5 0q0.578125 0 0.796875 -0.1875q0.234375 -0.1875 0.234375 -0.5625l0 -4.046875q0 -1.0625 -0.515625 -1.65625q-0.515625 -0.609375 -1.3125 -0.609375q-0.625 0 -1.171875 0.34375q-0.53125 0.34375 -0.90625 1.03125q-0.375 0.6875 -0.375 1.453125l0 3.40625q0 0.453125 0.1875 0.640625q0.203125 0.1875 0.640625 0.1875l0.71875 0l0 0.6875l-4.5 0l0 -0.6875l0.5 0q0.515625 0 0.734375 -0.203125q0.21875 -0.203125 0.21875 -0.625l0 -10.1875q0 -0.546875 -0.28125 -0.8125q-0.28125 -0.28125 -0.828125 -0.28125l-0.625 0l0 -0.671875zm22.704285 -0.28125l0.609375 0l4.828125 12.3125q0.296875 0.75 1.203125 0.75l0.421875 0l0 0.6875l-5.375 0l0 -0.6875l0.421875 0q0.84375 0 1.1875 -0.171875q0.234375 -0.140625 0.234375 -0.390625q0 -0.15625 -0.0625 -0.328125l-1.125 -2.875l-5.3125 0l-0.625 1.640625q-0.25 0.65625 -0.25 1.046875q0 0.4375 0.40625 0.765625q0.421875 0.3125 1.21875 0.3125l0.453125 0l0 0.6875l-4.890625 0l0 -0.6875q0.78125 0 1.234375 -0.328125q0.46875 -0.34375 0.84375 -1.3125l4.578125 -11.421875zm-0.265625 2.59375l-2.421875 6.0l4.765625 0l-2.34375 -6.0zm12.410446 -2.3125l-4.015625 13.46875l-1.171875 0l4.015625 -13.46875l1.171875 0zm10.792679 1.046875l0.625 -1.3125l0.578125 0l0.234375 5.421875l-0.609375 0q-0.609375 -2.28125 -1.515625 -3.359375q-1.125 -1.359375 -2.6875 -1.359375q-1.703125 0 -2.765625 1.515625q-1.0625 1.5 -1.0625 5.109375q0 3.03125 1.21875 4.625q1.03125 1.359375 2.90625 1.359375q1.640625 0 2.75 -1.046875q1.125 -1.0625 1.453125 -3.1875l0.65625 0q-0.296875 2.40625 -1.65625 3.703125q-1.359375 1.296875 -3.4375 1.296875q-1.6875 0 -3.09375 -0.84375q-1.40625 -0.859375 -2.25 -2.4375q-0.84375 -1.59375 -0.84375 -3.5q0 -2.0 0.859375 -3.765625q0.875 -1.78125 2.234375 -2.65625q1.359375 -0.890625 2.921875 -0.890625q0.875 0 1.6875 0.296875q0.828125 0.296875 1.796875 1.03125z" fill-rule="nonzero"/><path fill="#000000" fill-opacity="0.0" d="m34.942257 205.13387l55.118107 0l0 37.354324l-55.118107 0z" fill-rule="evenodd"/><path fill="#000000" d="m51.868355 219.26227l1.5 0l-0.859375 2.9375l1.5625 0l-0.1875 0.765625l-1.59375 0l-1.59375 5.59375q-0.140625 0.484375 -0.140625 0.84375q0 0.34375 0.140625 0.53125q0.15625 0.171875 0.375 0.171875q0.9375 0 2.296875 -2.359375l0.515625 0.28125q-1.578125 2.96875 -3.359375 2.96875q-0.671875 0 -1.0625 -0.40625q-0.375 -0.40625 -0.375 -1.046875q0 -0.5625 0.1875 -1.1875l1.53125 -5.390625l-1.65625 0l0.21875 -0.765625l1.65625 0l0.84375 -2.9375z" fill-rule="nonzero"/><path fill="#000000" d="m55.264427 232.04352l1.625 -0.109375q0.125 0.640625 0.171875 1.21875q0.46875 -0.671875 0.921875 -0.9375q0.46875 -0.28125 1.015625 -0.28125q0.59375 0 0.96875 0.3125q0.390625 0.3125 0.59375 1.015625q0.40625 -0.671875 0.90625 -1.0q0.5 -0.328125 1.078125 -0.328125q0.78125 0 1.171875 0.46875q0.5 0.609375 0.5 1.5625l0 2.828125q0 0.25 0.125 0.34375q0.171875 0.140625 0.5 0.140625l0.296875 0l0 0.453125l-2.859375 0l0 -0.453125l0.28125 0q0.359375 0 0.5 -0.125q0.15625 -0.125 0.15625 -0.359375l0 -2.828125q0 -0.625 -0.3125 -0.96875q-0.3125 -0.359375 -0.8125 -0.359375q-0.390625 0 -0.703125 0.203125q-0.296875 0.203125 -0.484375 0.578125q-0.25 0.546875 -0.25 0.921875l0 2.453125q0 0.25 0.125 0.375q0.140625 0.109375 0.421875 0.109375l0.390625 0l0 0.453125l-2.90625 0l0 -0.453125l0.328125 0q0.3125 0 0.453125 -0.125q0.15625 -0.125 0.15625 -0.3125l0 -2.625q0 -0.828125 -0.296875 -1.203125q-0.28125 -0.375 -0.78125 -0.375q-0.640625 0 -0.984375 0.4375q-0.5 0.625 -0.5 1.4375l0 2.28125q0 0.25 0.109375 0.359375q0.171875 0.125 0.515625 0.125l0.296875 0l0 0.453125l-2.875 0l0 -0.453125l0.4375 0q0.234375 0 0.359375 -0.125q0.140625 -0.125 0.140625 -0.3125l0 -3.71875q0 -0.3125 -0.15625 -0.46875q-0.15625 -0.15625 -0.625 -0.1875l0 -0.421875zm12.168121 -3.390625q0.265625 0 0.46875 0.203125q0.21875 0.203125 0.21875 0.484375q0 0.265625 -0.203125 0.46875q-0.203125 0.203125 -0.484375 0.203125q-0.28125 0 -0.484375 -0.203125q-0.203125 -0.203125 -0.203125 -0.484375q0 -0.265625 0.203125 -0.46875q0.21875 -0.203125 0.484375 -0.203125zm-1.578125 3.390625l2.265625 -0.0625l0 4.890625q0 0.203125 0.09375 0.28125q0.140625 0.125 0.34375 0.125l0.65625 0l0 0.453125l-3.234375 0l0 -0.453125l0.59375 0q0.265625 0 0.390625 -0.125q0.125 -0.140625 0.125 -0.390625l0 -3.578125q0 -0.34375 -0.203125 -0.515625q-0.1875 -0.171875 -0.5625 -0.171875l-0.46875 0l0 -0.453125zm4.0263977 0l1.890625 -0.125q0.109375 0.546875 0.171875 1.25q0.375 -0.609375 0.890625 -0.921875q0.53125 -0.3125 1.1875 -0.3125q0.5625 0 0.9375 0.234375q0.390625 0.21875 0.609375 0.703125q0.234375 0.46875 0.234375 1.0625l0 2.765625q0 0.3125 0.140625 0.453125q0.140625 0.125 0.46875 0.125l0.40625 0l0 0.453125l-3.0 0l0 -0.453125l0.28125 0q0.40625 0 0.5625 -0.125q0.15625 -0.125 0.15625 -0.390625l0 -2.4375q0 -0.796875 -0.25 -1.171875q-0.328125 -0.546875 -1.03125 -0.546875q-0.6875 0 -1.140625 0.5625q-0.453125 0.546875 -0.453125 1.421875l0 2.109375q0 0.3125 0.140625 0.453125q0.140625 0.125 0.46875 0.125l0.390625 0l0 0.453125l-3.0 0l0 -0.453125l0.390625 0q0.296875 0 0.453125 -0.125q0.15625 -0.125 0.15625 -0.296875l0 -3.6875q0 -0.359375 -0.203125 -0.546875q-0.203125 -0.1875 -0.5625 -0.1875l-0.296875 0l0 -0.390625z" fill-rule="nonzero"/><path fill="#000000" fill-opacity="0.0" d="m300.6719 205.13387l55.118134 0l0 37.354324l-55.118134 0z" fill-rule="evenodd"/><path fill="#000000" d="m316.55652 219.26227l1.5 0l-0.859375 2.9375l1.5625 0l-0.1875 0.765625l-1.59375 0l-1.59375 5.59375q-0.140625 0.484375 -0.140625 0.84375q0 0.34375 0.140625 0.53125q0.15625 0.171875 0.375 0.171875q0.9375 0 2.296875 -2.359375l0.515625 0.28125q-1.578125 2.96875 -3.359375 2.96875q-0.671875 0 -1.0625 -0.40625q-0.375 -0.40625 -0.375 -1.046875q0 -0.5625 0.1875 -1.1875l1.53125 -5.390625l-1.65625 0l0.21875 -0.765625l1.65625 0l0.84375 -2.9375z" fill-rule="nonzero"/><path fill="#000000" d="m319.95258 232.04352l1.625 -0.109375q0.125 0.640625 0.171875 1.21875q0.46875 -0.671875 0.921875 -0.9375q0.46875 -0.28125 1.015625 -0.28125q0.59375 0 0.96875 0.3125q0.390625 0.3125 0.59375 1.015625q0.40625 -0.671875 0.90625 -1.0q0.5 -0.328125 1.078125 -0.328125q0.78125 0 1.171875 0.46875q0.5 0.609375 0.5 1.5625l0 2.828125q0 0.25 0.125 0.34375q0.171875 0.140625 0.5 0.140625l0.296875 0l0 0.453125l-2.859375 0l0 -0.453125l0.28125 0q0.359375 0 0.5 -0.125q0.15625 -0.125 0.15625 -0.359375l0 -2.828125q0 -0.625 -0.3125 -0.96875q-0.3125 -0.359375 -0.8125 -0.359375q-0.390625 0 -0.703125 0.203125q-0.296875 0.203125 -0.484375 0.578125q-0.25 0.546875 -0.25 0.921875l0 2.453125q0 0.25 0.125 0.375q0.140625 0.109375 0.421875 0.109375l0.390625 0l0 0.453125l-2.90625 0l0 -0.453125l0.328125 0q0.3125 0 0.453125 -0.125q0.15625 -0.125 0.15625 -0.3125l0 -2.625q0 -0.828125 -0.296875 -1.203125q-0.28125 -0.375 -0.78125 -0.375q-0.640625 0 -0.984375 0.4375q-0.5 0.625 -0.5 1.4375l0 2.28125q0 0.25 0.109375 0.359375q0.171875 0.125 0.515625 0.125l0.296875 0l0 0.453125l-2.875 0l0 -0.453125l0.4375 0q0.234375 0 0.359375 -0.125q0.140625 -0.125 0.140625 -0.3125l0 -3.71875q0 -0.3125 -0.15625 -0.46875q-0.15625 -0.15625 -0.625 -0.1875l0 -0.421875zm16.714996 5.0625l0.21875 0.34375q-0.453125 0.453125 -0.984375 0.453125q-0.421875 0 -0.703125 -0.21875q-0.28125 -0.234375 -0.484375 -0.796875q-0.578125 0.609375 -1.015625 0.8125q-0.4375 0.203125 -1.046875 0.203125q-0.875 0 -1.34375 -0.375q-0.453125 -0.375 -0.453125 -0.96875q0 -0.890625 1.046875 -1.46875q1.046875 -0.59375 2.765625 -0.78125l0 -0.859375q0 -0.46875 -0.375 -0.796875q-0.359375 -0.328125 -0.9375 -0.328125q-0.515625 0 -0.90625 0.21875q-0.265625 0.171875 -0.265625 0.328125q0 0.09375 0.140625 0.28125q0.171875 0.234375 0.171875 0.4375q0 0.265625 -0.171875 0.4375q-0.171875 0.171875 -0.46875 0.171875q-0.296875 0 -0.5 -0.203125q-0.203125 -0.203125 -0.203125 -0.53125q0 -0.59375 0.671875 -1.09375q0.6875 -0.5 1.78125 -0.5q1.015625 0 1.546875 0.4375q0.53125 0.4375 0.53125 1.078125l0 3.109375q0 0.40625 0.140625 0.609375q0.125 0.1875 0.34375 0.1875q0.234375 0 0.5 -0.1875zm-2.0 -2.40625q-1.53125 0.21875 -2.1875 0.703125q-0.46875 0.359375 -0.46875 1.03125q0 0.46875 0.25 0.734375q0.25 0.265625 0.640625 0.265625q0.71875 0 1.234375 -0.546875q0.53125 -0.546875 0.53125 -1.359375l0 -0.828125zm2.7920532 -2.65625l2.734375 0l0 0.421875q-0.65625 0.015625 -0.65625 0.234375q0 0.09375 0.109375 0.25l0.984375 1.296875l0.953125 -1.203125q0.109375 -0.140625 0.109375 -0.25q0 -0.265625 -0.734375 -0.328125l0 -0.421875l2.390625 0l0 0.421875q-0.875 0.140625 -1.328125 0.71875l-1.109375 1.390625l1.75 2.28125q0.171875 0.234375 0.375 0.328125q0.21875 0.09375 0.609375 0.09375l0 0.453125l-2.90625 0l0 -0.453125l0.21875 0q0.3125 0 0.46875 -0.0625q0.09375 -0.0625 0.09375 -0.125q0 -0.0625 -0.109375 -0.234375l-1.140625 -1.5l-0.921875 1.171875q-0.203125 0.25 -0.203125 0.40625q0 0.140625 0.140625 0.21875q0.1875 0.109375 0.640625 0.125l0 0.453125l-2.46875 0l0 -0.453125q0.4375 -0.046875 0.6875 -0.1875q0.40625 -0.25 0.71875 -0.65625l1.140625 -1.4375l-1.671875 -2.15625q-0.28125 -0.359375 -0.875 -0.375l0 -0.421875z" fill-rule="nonzero"/><path fill="#000000" fill-opacity="0.0" d="m34.942257 8.881889l55.118107 0l0 37.354332l-55.118107 0z" fill-rule="evenodd"/><path fill="#000000" d="m48.27764 21.010303l11.125 0l-1.171875 4.9375l-0.6875 0q0.265625 -1.25 0.265625 -2.03125q0 -1.203125 -0.53125 -1.75q-0.53125 -0.5625 -1.65625 -0.5625q-0.65625 0 -0.890625 0.171875q-0.234375 0.171875 -0.375 0.671875l-2.84375 10.59375q-0.03125 0.09375 -0.03125 0.1875q0 0.28125 0.203125 0.421875q0.21875 0.140625 0.703125 0.140625l1.390625 0l-0.1875 0.6875l-6.640625 0l0.171875 -0.6875l1.265625 0q0.546875 0 0.8125 -0.1875q0.265625 -0.1875 0.375 -0.5625l2.8125 -10.484375q0.0625 -0.1875 0.0625 -0.359375q0 -0.265625 -0.21875 -0.421875q-0.21875 -0.171875 -0.71875 -0.171875q-0.84375 0 -1.59375 0.4375q-0.734375 0.4375 -1.46875 1.4375q-0.421875 0.578125 -1.40625 2.46875l-0.640625 0l1.875 -4.9375z" fill-rule="nonzero"/><path fill="#000000" d="m58.370766 35.791553l1.625 -0.109375q0.125 0.640625 0.171875 1.21875q0.46875 -0.671875 0.921875 -0.9375q0.46875 -0.28125 1.015625 -0.28125q0.59375 0 0.96875 0.3125q0.390625 0.3125 0.59375 1.015625q0.40625 -0.671875 0.90625 -1.0q0.5 -0.328125 1.078125 -0.328125q0.78125 0 1.171875 0.46875q0.5 0.609375 0.5 1.5625l0 2.828125q0 0.25 0.125 0.34375q0.171875 0.140625 0.5 0.140625l0.296875 0l0 0.453125l-2.859375 0l0 -0.453125l0.28125 0q0.359375 0 0.5 -0.125q0.15625 -0.125 0.15625 -0.359375l0 -2.828125q0 -0.625 -0.3125 -0.96875q-0.3125 -0.359375 -0.8125 -0.359375q-0.390625 0 -0.703125 0.203125q-0.296875 0.203125 -0.484375 0.578125q-0.25 0.546875 -0.25 0.921875l0 2.453125q0 0.25 0.125 0.375q0.140625 0.109375 0.421875 0.109375l0.390625 0l0 0.453125l-2.90625 0l0 -0.453125l0.328125 0q0.3125 0 0.453125 -0.125q0.15625 -0.125 0.15625 -0.3125l0 -2.625q0 -0.828125 -0.296875 -1.203125q-0.28125 -0.375 -0.78125 -0.375q-0.640625 0 -0.984375 0.4375q-0.5 0.625 -0.5 1.4375l0 2.28125q0 0.25 0.109375 0.359375q0.171875 0.125 0.515625 0.125l0.296875 0l0 0.453125l-2.875 0l0 -0.453125l0.4375 0q0.234375 0 0.359375 -0.125q0.140625 -0.125 0.140625 -0.3125l0 -3.71875q0 -0.3125 -0.15625 -0.46875q-0.15625 -0.15625 -0.625 -0.1875l0 -0.421875zm12.168121 -3.390625q0.265625 0 0.46875 0.203125q0.21875 0.203125 0.21875 0.484375q0 0.265625 -0.203125 0.46875q-0.203125 0.203125 -0.484375 0.203125q-0.28125 0 -0.484375 -0.203125q-0.203125 -0.203125 -0.203125 -0.484375q0 -0.265625 0.203125 -0.46875q0.21875 -0.203125 0.484375 -0.203125zm-1.578125 3.390625l2.265625 -0.0625l0 4.890625q0 0.203125 0.09375 0.28125q0.140625 0.125 0.34375 0.125l0.65625 0l0 0.453125l-3.234375 0l0 -0.453125l0.59375 0q0.265625 0 0.390625 -0.125q0.125 -0.140625 0.125 -0.390625l0 -3.578125q0 -0.34375 -0.203125 -0.515625q-0.1875 -0.171875 -0.5625 -0.171875l-0.46875 0l0 -0.453125zm4.0263977 0l1.890625 -0.125q0.109375 0.546875 0.171875 1.25q0.375 -0.609375 0.890625 -0.921875q0.53125 -0.3125 1.1875 -0.3125q0.5625 0 0.9375 0.234375q0.390625 0.21875 0.609375 0.703125q0.234375 0.46875 0.234375 1.0625l0 2.765625q0 0.3125 0.140625 0.453125q0.140625 0.125 0.46875 0.125l0.40625 0l0 0.453125l-3.0 0l0 -0.453125l0.28125 0q0.40625 0 0.5625 -0.125q0.15625 -0.125 0.15625 -0.390625l0 -2.4375q0 -0.796875 -0.25 -1.171875q-0.328125 -0.546875 -1.03125 -0.546875q-0.6875 0 -1.140625 0.5625q-0.453125 0.546875 -0.453125 1.421875l0 2.109375q0 0.3125 0.140625 0.453125q0.140625 0.125 0.46875 0.125l0.390625 0l0 0.453125l-3.0 0l0 -0.453125l0.390625 0q0.296875 0 0.453125 -0.125q0.15625 -0.125 0.15625 -0.296875l0 -3.6875q0 -0.359375 -0.203125 -0.546875q-0.203125 -0.1875 -0.5625 -0.1875l-0.296875 0l0 -0.390625z" fill-rule="nonzero"/><path fill="#000000" fill-opacity="0.0" d="m300.6719 8.881889l55.118134 0l0 37.354332l-55.118134 0z" fill-rule="evenodd"/><path fill="#000000" d="m316.30588 10.010303l11.125 0l-1.171875 4.9375l-0.6875 0q0.265625 -1.25 0.265625 -2.03125q0 -1.203125 -0.53125 -1.75q-0.53125 -0.5625 -1.65625 -0.5625q-0.65625 0 -0.890625 0.171875q-0.234375 0.171875 -0.375 0.671875l-2.84375 10.593751q-0.03125 0.09375 -0.03125 0.1875q0 0.28125 0.203125 0.421875q0.21875 0.140625 0.703125 0.140625l1.390625 0l-0.1875 0.6875l-6.640625 0l0.171875 -0.6875l1.265625 0q0.546875 0 0.8125 -0.1875q0.265625 -0.1875 0.375 -0.5625l2.8125 -10.484376q0.0625 -0.1875 0.0625 -0.359375q0 -0.265625 -0.21875 -0.421875q-0.21875 -0.171875 -0.71875 -0.171875q-0.84375 0 -1.59375 0.4375q-0.734375 0.4375 -1.46875 1.4375q-0.421875 0.578125 -1.40625 2.46875l-0.640625 0l1.875 -4.9375z" fill-rule="nonzero"/><path fill="#000000" d="m326.39902 24.791553l1.625 -0.109375q0.125 0.640625 0.171875 1.21875q0.46875 -0.671875 0.921875 -0.9375q0.46875 -0.28125 1.015625 -0.28125q0.59375 0 0.96875 0.3125q0.390625 0.3125 0.59375 1.015625q0.40625 -0.671875 0.90625 -1.0q0.5 -0.328125 1.078125 -0.328125q0.78125 0 1.171875 0.46875q0.5 0.609375 0.5 1.5625l0 2.828125q0 0.25 0.125 0.34375q0.171875 0.140625 0.5 0.140625l0.296875 0l0 0.453125l-2.859375 0l0 -0.453125l0.28125 0q0.359375 0 0.5 -0.125q0.15625 -0.125 0.15625 -0.359375l0 -2.828125q0 -0.625 -0.3125 -0.96875q-0.3125 -0.359375 -0.8125 -0.359375q-0.390625 0 -0.703125 0.203125q-0.296875 0.203125 -0.484375 0.578125q-0.25 0.546875 -0.25 0.921875l0 2.453125q0 0.25 0.125 0.375q0.140625 0.109375 0.421875 0.109375l0.390625 0l0 0.453125l-2.90625 0l0 -0.453125l0.328125 0q0.3125 0 0.453125 -0.125q0.15625 -0.125 0.15625 -0.3125l0 -2.625q0 -0.828125 -0.296875 -1.203125q-0.28125 -0.375 -0.78125 -0.375q-0.640625 0 -0.984375 0.4375q-0.5 0.625 -0.5 1.4375l0 2.28125q0 0.25 0.109375 0.359375q0.171875 0.125 0.515625 0.125l0.296875 0l0 0.453125l-2.875 0l0 -0.453125l0.4375 0q0.234375 0 0.359375 -0.125q0.140625 -0.125 0.140625 -0.3125l0 -3.71875q0 -0.3125 -0.15625 -0.46875q-0.15625 -0.15625 -0.625 -0.1875l0 -0.421875zm16.714996 5.0625l0.21875 0.34375q-0.453125 0.453125 -0.984375 0.453125q-0.421875 0 -0.703125 -0.21875q-0.28125 -0.234375 -0.484375 -0.796875q-0.578125 0.609375 -1.015625 0.8125q-0.4375 0.203125 -1.046875 0.203125q-0.875 0 -1.34375 -0.375q-0.453125 -0.375 -0.453125 -0.96875q0 -0.890625 1.046875 -1.46875q1.046875 -0.59375 2.765625 -0.78125l0 -0.859375q0 -0.46875 -0.375 -0.796875q-0.359375 -0.328125 -0.9375 -0.328125q-0.515625 0 -0.90625 0.21875q-0.265625 0.171875 -0.265625 0.328125q0 0.09375 0.140625 0.28125q0.171875 0.234375 0.171875 0.4375q0 0.265625 -0.171875 0.4375q-0.171875 0.171875 -0.46875 0.171875q-0.296875 0 -0.5 -0.203125q-0.203125 -0.203125 -0.203125 -0.53125q0 -0.59375 0.671875 -1.09375q0.6875 -0.5 1.78125 -0.5q1.015625 0 1.546875 0.4375q0.53125 0.4375 0.53125 1.078125l0 3.109375q0 0.40625 0.140625 0.609375q0.125 0.1875 0.34375 0.1875q0.234375 0 0.5 -0.1875zm-2.0 -2.40625q-1.53125 0.21875 -2.1875 0.703125q-0.46875 0.359375 -0.46875 1.03125q0 0.46875 0.25 0.734375q0.25 0.265625 0.640625 0.265625q0.71875 0 1.234375 -0.546875q0.53125 -0.546875 0.53125 -1.359375l0 -0.828125z" fill-rule="nonzero"/><path fill="#000000" d="m325.18774 46.791553l2.734375 0l0 0.421875q-0.65625 0.015625 -0.65625 0.234375q0 0.09375 0.109375 0.25l0.984375 1.296875l0.953125 -1.203125q0.109375 -0.140625 0.109375 -0.25q0 -0.265625 -0.734375 -0.328125l0 -0.421875l2.390625 0l0 0.421875q-0.875 0.140625 -1.328125 0.71875l-1.109375 1.390625l1.75 2.28125q0.171875 0.234375 0.375 0.328125q0.21875 0.09375 0.609375 0.09375l0 0.453125l-2.90625 0l0 -0.453125l0.21875 0q0.3125 0 0.46875 -0.0625q0.09375 -0.0625 0.09375 -0.125q0 -0.0625 -0.109375 -0.234375l-1.140625 -1.5l-0.921875 1.171875q-0.203125 0.25 -0.203125 0.40625q0 0.140625 0.140625 0.21875q0.1875 0.109375 0.640625 0.125l0 0.453125l-2.46875 0l0 -0.453125q0.4375 -0.046875 0.6875 -0.1875q0.40625 -0.25 0.71875 -0.65625l1.140625 -1.4375l-1.671875 -2.15625q-0.28125 -0.359375 -0.875 -0.375l0 -0.421875z" fill-rule="nonzero"/><path fill="#000000" fill-opacity="0.0" d="m163.23885 87.338585l64.25197 0l0 37.354332l-64.25197 0z" fill-rule="evenodd"/><path fill="#000000" d="m194.33357 112.935745l-11.609375 0l8.8125 -12.421875l0.15625 0l2.640625 12.421875zm-2.171875 -0.640625l-1.859375 -8.78125l-6.34375 8.78125l8.203125 0z" fill-rule="nonzero"/><path fill="#000000" d="m198.5842 99.466995l11.125 0l-1.171875 4.9375l-0.6875 0q0.265625 -1.25 0.265625 -2.03125q0 -1.203125 -0.53125 -1.75q-0.53125 -0.5625 -1.65625 -0.5625q-0.65625 0 -0.890625 0.171875q-0.234375 0.171875 -0.375 0.671875l-2.84375 10.59375q-0.03125 0.09375 -0.03125 0.1875q0 0.28125 0.203125 0.421875q0.21875 0.140625 0.703125 0.140625l1.390625 0l-0.1875 0.6875l-6.640625 0l0.171875 -0.6875l1.265625 0q0.546875 0 0.8125 -0.1875q0.265625 -0.1875 0.375 -0.5625l2.8125 -10.484375q0.0625 -0.1875 0.0625 -0.359375q0 -0.265625 -0.21875 -0.421875q-0.21875 -0.171875 -0.71875 -0.171875q-0.84375 0 -1.59375 0.4375q-0.734375 0.4375 -1.46875 1.4375q-0.421875 0.578125 -1.40625 2.46875l-0.640625 0l1.875 -4.9375z" fill-rule="nonzero"/><path fill="#000000" fill-opacity="0.0" d="m163.24016 285.5748l64.25197 0l0 37.35434l-64.25197 0z" fill-rule="evenodd"/><path fill="#000000" d="m197.44122 311.17197l-11.609375 0l8.8125 -12.421875l0.15625 0l2.640625 12.421875zm-2.171875 -0.640625l-1.859375 -8.78125l-6.34375 8.78125l8.203125 0z" fill-rule="nonzero"/><path fill="#000000" d="m202.17622 299.70322l1.5 0l-0.859375 2.9375l1.5625 0l-0.1875 0.765625l-1.59375 0l-1.59375 5.59375q-0.140625 0.484375 -0.140625 0.84375q0 0.34375 0.140625 0.53125q0.15625 0.171875 0.375 0.171875q0.9375 0 2.296875 -2.359375l0.515625 0.28125q-1.578125 2.96875 -3.359375 2.96875q-0.671875 0 -1.0625 -0.40625q-0.375 -0.40625 -0.375 -1.046875q0 -0.5625 0.1875 -1.1875l1.53125 -5.390625l-1.65625 0l0.21875 -0.765625l1.65625 0l0.84375 -2.9375z" fill-rule="nonzero"/><path fill="#000000" fill-opacity="0.0" d="m321.91602 322.92914l0 0c0 -39.834076 2.827301 -72.12599 6.3149414 -72.12599l0 0c1.6748352 0 3.281067 7.598984 4.4653625 21.125229c1.1842957 13.526245 1.8496094 31.871765 1.8496094 51.000763l0 0c0 39.834076 -2.827301 72.12598 -6.314972 72.12598l0 0c-1.6748047 0 -3.281067 -7.5989685 -4.465332 -21.125214c-1.1842957 -13.526245 -1.8496094 -31.871765 -1.8496094 -51.000763z" fill-rule="evenodd"/><path stroke="#000000" stroke-width="2.0" stroke-linejoin="round" stroke-linecap="butt" d="m321.91602 322.92914l0 0c0 -39.834076 2.827301 -72.12599 6.3149414 -72.12599l0 0c1.6748352 0 3.281067 7.598984 4.4653625 21.125229c1.1842957 13.526245 1.8496094 31.871765 1.8496094 51.000763l0 0c0 39.834076 -2.827301 72.12598 -6.314972 72.12598l0 0c-1.6748047 0 -3.281067 -7.5989685 -4.465332 -21.125214c-1.1842957 -13.526245 -1.8496094 -31.871765 -1.8496094 -51.000763z" fill-rule="evenodd"/><path fill="#000000" fill-opacity="0.0" d="m56.18635 322.92914l0 0c0 -39.834076 2.8273048 -72.12599 6.3149605 -72.12599l0 0c1.6748352 0 3.281067 7.598984 4.465355 21.125229c1.1842804 13.526245 1.8496094 31.871765 1.8496094 51.000763l0 0c0 39.834076 -2.8273087 72.12598 -6.3149643 72.12598l0 0c-1.6748314 0 -3.281067 -7.5989685 -4.465351 -21.125214c-1.1842842 -13.526245 -1.8496094 -31.871765 -1.8496094 -51.000763z" fill-rule="evenodd"/><path stroke="#000000" stroke-width="2.0" stroke-linejoin="round" stroke-linecap="butt" d="m56.18635 322.92914l0 0c0 -39.834076 2.8273048 -72.12599 6.3149605 -72.12599l0 0c1.6748352 0 3.281067 7.598984 4.465355 21.125229c1.1842804 13.526245 1.8496094 31.871765 1.8496094 51.000763l0 0c0 39.834076 -2.8273087 72.12598 -6.3149643 72.12598l0 0c-1.6748314 0 -3.281067 -7.5989685 -4.465351 -21.125214c-1.1842842 -13.526245 -1.8496094 -31.871765 -1.8496094 -51.000763z" fill-rule="evenodd"/></g></svg>